<svg width="298" height="298" viewBox="0 0 298 298" fill="none" xmlns="http://www.w3.org/2000/svg">
<path d="M149 298C231.29 298 298 231.29 298 149C298 66.7096 231.29 0 149 0C66.7096 0 0 66.7096 0 149C0 231.29 66.7096 298 149 298Z" fill="#848484" fill-opacity="0.05"/>
<path d="M298 147.452C298 172.209 291.954 196.584 280.41 218.422C268.859 240.251 252.155 258.872 231.781 272.627C211.407 286.382 187.99 294.844 163.601 297.277C139.22 299.701 114.619 296.009 91.9792 286.54C69.339 277.064 49.3651 262.096 33.822 242.953C18.2788 223.818 7.64493 201.103 2.86122 176.822C-1.91464 152.54 -0.699204 127.442 6.41361 103.751C13.5264 80.0595 26.317 58.5061 43.6403 41L148.999 147.452H298Z" fill="#BFBFBF" fill-opacity="0.05"/>
<path d="M298 150C298 175.058 291.588 199.706 279.367 221.633C267.147 243.56 249.519 262.053 228.132 275.365C206.744 288.685 182.304 296.397 157.094 297.776C131.884 299.154 106.73 294.161 84 283.264L148.877 150H298Z" fill="#7E7E7E" fill-opacity="0.05"/>
</svg>
