<svg width="127" height="56" viewBox="0 0 127 56" fill="none" xmlns="http://www.w3.org/2000/svg">
<g clip-path="url(#clip0_63_324)">
<path d="M10.8954 17.7787C8.60706 17.7787 6.96638 17.1975 5.9733 16.0351C5.02342 14.8728 4.54847 13.4305 4.54847 11.7085C4.54847 9.98648 5.06659 8.56579 6.10283 7.44645C7.18223 6.3271 8.80135 5.76746 10.9602 5.76746C13.119 5.76746 14.7597 6.28407 15.8823 7.31729C17.0049 8.30748 17.5662 9.74966 17.5662 11.6439C17.5662 13.4951 17.0265 14.9804 15.9471 16.0997C14.8677 17.2191 13.1838 17.7787 10.8954 17.7787ZM1.11593 22.2345H16.9833V51.8106H20.6102V52.9729H1.37499V51.8106H4.93706V23.3969H1.11593V22.2345ZM43.5618 24.0426C41.9642 24.0426 40.561 25.0759 39.352 27.1423C38.1431 29.2088 37.5386 31.6627 37.5386 34.504V51.8106H42.1369V52.9729H21.9303V51.8106H25.4923V23.3969H21.9303V22.2345H37.5386V28.4338C38.0999 26.2382 39.1793 24.5592 40.7769 23.3969C42.3744 22.1914 44.1878 21.5887 46.2171 21.5887C48.2464 21.5887 49.8871 22.1699 51.1395 23.3323C52.4348 24.4516 53.0825 26.066 53.0825 28.1755C53.0825 30.242 52.6073 31.8349 51.6576 32.9542C50.7074 34.0735 49.2395 34.6332 47.2534 34.6332C45.3104 34.6332 43.864 33.9874 42.9141 32.6959C42.0074 31.4044 41.8995 29.6178 42.5903 27.336H44.9218C46.0012 25.1404 45.5479 24.0426 43.5618 24.0426ZM63.5172 17.7787C61.2287 17.7787 59.5878 17.1975 58.5951 16.0351C57.6448 14.8728 57.1702 13.4305 57.1702 11.7085C57.1702 9.98648 57.6884 8.56579 58.7246 7.44645C59.8038 6.3271 61.423 5.76746 63.582 5.76746C65.7405 5.76746 67.3813 6.28407 68.5041 7.31729C69.6264 8.30748 70.188 9.74966 70.188 11.6439C70.188 13.4951 69.6481 14.9804 68.5689 16.0997C67.4891 17.2191 65.8052 17.7787 63.5172 17.7787ZM53.7377 22.2345H69.6051V51.8106H73.2319V52.9729H53.9968V51.8106H57.5588V23.3969H53.7377V22.2345ZM76.0411 53.6187V42.0595H76.8188C77.9411 45.8049 79.4524 48.431 81.3523 49.9378C83.2518 51.4448 85.6268 52.198 88.4765 52.198C92.8805 52.198 95.0825 50.799 95.0825 48.0005C95.0825 46.7951 94.5426 45.8911 93.4634 45.2883C91.7795 44.3412 89.6205 43.6093 86.9869 43.0927C84.0507 42.3178 81.5896 41.2846 79.6037 39.993C77.2286 38.4432 76.0411 35.9893 76.0411 32.6313C76.0411 29.2733 77.0774 26.6041 79.1503 24.6238C81.2228 22.6004 83.986 21.5887 87.4403 21.5887C89.5557 21.5887 91.736 22.0838 93.9815 23.074C94.8017 23.4184 95.4276 23.5906 95.8597 23.5906C96.2913 23.5906 96.6581 23.4399 96.9607 23.1386C97.2628 22.8372 97.6296 22.2775 98.0617 21.4596H98.7741V31.3398H97.9969C95.7949 25.7432 92.3836 22.9448 87.7641 22.9448C85.7346 22.9448 84.2233 23.3107 83.2305 24.0426C82.2373 24.7314 81.7409 25.614 81.7409 26.6903C81.7409 27.336 81.8917 27.8526 82.1943 28.2401C82.4964 28.5845 82.7337 28.8428 82.9067 29.015C83.0792 29.1872 83.3601 29.3809 83.7486 29.5962C84.1372 29.7684 84.4611 29.9191 84.7201 30.0483C84.9792 30.1344 85.3678 30.2635 85.8859 30.4357C86.447 30.6079 86.8574 30.7156 87.1164 30.7586C90.0521 31.4905 92.1681 32.1362 93.4634 32.6959C94.7587 33.2125 95.9892 33.8583 97.155 34.6332C99.5295 36.2691 100.717 38.9168 100.717 42.5761C100.717 46.1924 99.6373 48.9476 97.4788 50.8419C95.3198 52.6929 92.3624 53.6187 88.606 53.6187C85.9289 53.6187 83.3383 52.9946 80.8342 51.746C80.3161 51.4014 79.9058 51.2294 79.6037 51.2294C78.6535 51.2294 77.7255 52.026 76.8188 53.6187H76.0411Z" fill="white"/>
<path d="M117.386 56C122.696 56 127 51.7084 127 46.4144C127 41.1205 122.696 36.8289 117.386 36.8289C112.077 36.8289 107.773 41.1205 107.773 46.4144C107.773 51.7084 112.077 56 117.386 56Z" fill="#FFB2E2"/>
<path d="M127 46.4144C127 47.9907 126.61 49.5428 125.865 50.9332C125.12 52.3231 124.042 53.5087 122.728 54.3845C121.413 55.2604 119.902 55.7992 118.329 55.954C116.755 56.1084 115.168 55.8733 113.707 55.2704C112.247 54.6671 110.958 53.714 109.955 52.4952C108.952 51.2768 108.266 49.8305 107.958 48.2844C107.649 46.7384 107.728 45.1403 108.187 43.6318C108.646 42.1234 109.471 40.751 110.589 39.6364L117.386 46.4144H127Z" fill="#A6E7FF"/>
<path d="M127 46.4144C127 48.0374 126.587 49.6337 125.799 51.0539C125.011 52.474 123.875 53.6717 122.496 54.5339C121.117 55.3966 119.541 55.8961 117.916 55.9854C116.291 56.0747 114.669 55.7513 113.204 55.0455L117.386 46.4144H127Z" fill="#AA9BFF"/>
</g>
<defs>
<clipPath id="clip0_63_324">
<rect width="127" height="56" fill="white"/>
</clipPath>
</defs>
</svg>
