<svg width="242" height="107" viewBox="0 0 242 107" fill="none" xmlns="http://www.w3.org/2000/svg">
<g clip-path="url(#clip0_87_294)">
<path d="M20.7614 33.9701C16.4009 33.9701 13.2746 32.8596 11.3822 30.6386C9.57223 28.4176 8.66721 25.662 8.66721 22.3717C8.66721 19.0814 9.6545 16.3668 11.6291 14.2281C13.6859 12.0893 16.7711 11.02 20.8848 11.02C24.9986 11.02 28.1249 12.0071 30.264 13.9813C32.4032 15.8733 33.4727 18.6289 33.4727 22.2483C33.4727 25.7853 32.4442 28.6233 30.3874 30.762C28.3306 32.9007 25.122 33.9701 20.7614 33.9701ZM2.12646 42.4838H32.362V98.9952H39.273V101.216H2.62011V98.9952H9.40768V44.7048H2.12646V42.4838ZM83.0075 45.9386C79.9634 45.9386 77.2894 47.9128 74.9858 51.8612C72.6822 55.8096 71.5303 60.4984 71.5303 65.9274V98.9952H80.2925V101.216H41.7884V98.9952H48.576V44.7048H41.7884V42.4838H71.5303V54.329C72.5999 50.1338 74.6568 46.9258 77.7008 44.7048C80.7449 42.4016 84.2004 41.2499 88.0673 41.2499C91.9342 41.2499 95.0605 42.3604 97.447 44.5814C99.9152 46.7201 101.149 49.8048 101.149 53.8354C101.149 57.7838 100.244 60.8274 98.4343 62.9661C96.6236 65.1049 93.8264 66.1742 90.0419 66.1742C86.3396 66.1742 83.5834 64.9403 81.7734 62.4726C80.0456 60.0048 79.84 56.5911 81.1563 52.2314H85.5991C87.6559 48.0362 86.792 45.9386 83.0075 45.9386ZM121.033 33.9701C116.672 33.9701 113.545 32.8596 111.654 30.6386C109.843 28.4176 108.939 25.662 108.939 22.3717C108.939 19.0814 109.926 16.3668 111.9 14.2281C113.957 12.0893 117.042 11.02 121.156 11.02C125.269 11.02 128.396 12.0071 130.535 13.9813C132.674 15.8733 133.744 18.6289 133.744 22.2483C133.744 25.7853 132.715 28.6233 130.659 30.762C128.601 32.9007 125.393 33.9701 121.033 33.9701ZM102.398 42.4838H132.633V98.9952H139.544V101.216H102.892V98.9952H109.679V44.7048H102.398V42.4838ZM144.897 102.45V80.3637H146.379C148.518 87.5202 151.398 92.5379 155.018 95.417C158.637 98.2964 163.163 99.7356 168.593 99.7356C176.985 99.7356 181.181 97.0625 181.181 91.7154C181.181 89.4122 180.152 87.6848 178.096 86.5331C174.887 84.7235 170.773 83.325 165.755 82.3379C160.16 80.8573 155.47 78.8831 151.686 76.4153C147.16 73.454 144.897 68.7653 144.897 62.3492C144.897 55.933 146.872 50.833 150.822 47.0491C154.771 43.183 160.036 41.2499 166.618 41.2499C170.65 41.2499 174.804 42.1959 179.083 44.0878C180.646 44.7459 181.838 45.0749 182.662 45.0749C183.484 45.0749 184.183 44.787 184.76 44.2112C185.335 43.6355 186.034 42.566 186.858 41.0032H188.215V59.8814H186.734C182.538 49.1879 176.038 43.8411 167.236 43.8411C163.368 43.8411 160.488 44.5402 158.597 45.9386C156.704 47.2547 155.758 48.9411 155.758 50.9975C155.758 52.2314 156.046 53.2185 156.622 53.9588C157.198 54.6169 157.65 55.1105 157.98 55.4395C158.309 55.7685 158.844 56.1386 159.584 56.55C160.325 56.879 160.942 57.1669 161.435 57.4137C161.929 57.5782 162.669 57.825 163.657 58.154C164.726 58.483 165.508 58.6887 166.001 58.7709C171.595 60.1694 175.627 61.4032 178.096 62.4726C180.564 63.4597 182.909 64.6935 185.13 66.1742C189.655 69.3 191.918 74.3589 191.918 81.3508C191.918 88.2605 189.86 93.525 185.747 97.1444C181.633 100.681 175.998 102.45 168.84 102.45C163.739 102.45 158.802 101.258 154.031 98.8718C153.043 98.2135 152.261 97.8847 151.686 97.8847C149.875 97.8847 148.107 99.4068 146.379 102.45H144.897Z" fill="#817ABD"/>
<path d="M223.681 107C233.798 107 242 98.8 242 88.6847C242 78.5694 233.798 70.3694 223.681 70.3694C213.564 70.3694 205.363 78.5694 205.363 88.6847C205.363 98.8 213.564 107 223.681 107Z" fill="#FFB2E2"/>
<path d="M242 88.6847C242 91.6967 241.257 94.6621 239.838 97.3189C238.417 99.9746 236.364 102.24 233.859 103.913C231.354 105.587 228.475 106.616 225.477 106.912C222.479 107.207 219.455 106.758 216.671 105.606C213.888 104.453 211.432 102.632 209.521 100.303C207.61 97.9754 206.303 95.2119 205.715 92.2578C205.127 89.3037 205.277 86.2503 206.151 83.368C207.026 80.4858 208.598 77.8636 210.728 75.7338L223.681 88.6847H242Z" fill="#A6E7FF"/>
<path d="M242 88.6847C242 91.7857 241.212 94.8358 239.711 97.5493C238.21 100.263 236.045 102.551 233.417 104.199C230.79 105.847 227.788 106.801 224.691 106.972C221.594 107.143 218.504 106.525 215.712 105.176L223.681 88.6847H242Z" fill="#AA9BFF"/>
</g>
<defs>
<clipPath id="clip0_87_294">
<rect width="242" height="107" fill="white"/>
</clipPath>
</defs>
</svg>
