<svg width="20" height="20" viewBox="0 0 20 20" fill="none" xmlns="http://www.w3.org/2000/svg">
<path d="M9.61355 19.1712C14.923 19.1712 19.2271 14.8796 19.2271 9.58559C19.2271 4.29161 14.923 0 9.61355 0C4.30413 0 0 4.29161 0 9.58559C0 14.8796 4.30413 19.1712 9.61355 19.1712Z" fill="#FFB2E2"/>
<path d="M19.2271 9.58559C19.2271 11.162 18.837 12.714 18.0922 14.1044C17.3469 15.4943 16.2692 16.6799 14.9546 17.5557C13.6401 18.4316 12.1293 18.9704 10.5557 19.1253C8.98259 19.2796 7.39535 19.0445 5.93459 18.4417C4.47384 17.8383 3.18512 16.8853 2.18228 15.6664C1.17943 14.448 0.493328 13.0017 0.184683 11.4556C-0.123457 9.90958 -0.0450365 8.31151 0.413884 6.80304C0.872804 5.29457 1.69806 3.92222 2.81576 2.80757L9.61354 9.58559H19.2271Z" fill="#A6E7FF"/>
<path d="M19.2271 9.58559C19.2271 11.2085 18.8137 12.8049 18.0259 14.225C17.2381 15.6452 16.1017 16.8429 14.7229 17.7051C13.3441 18.5678 11.7685 19.0672 10.1433 19.1565C8.5181 19.2458 6.89644 18.9225 5.43114 18.2167L9.61354 9.58559H19.2271Z" fill="#AA9BFF"/>
</svg>
